<mxfile host="Electron" modified="2023-11-12T21:53:38.392Z" agent="Mozilla/5.0 (Windows NT 10.0; Win64; x64) AppleWebKit/537.36 (KHTML, like Gecko) draw.io/22.0.3 Chrome/114.0.5735.289 Electron/25.8.4 Safari/537.36" etag="lBJom0ifwB3RFuzABgjk" version="22.0.3" type="device">
  <diagram id="C5RBs43oDa-KdzZeNtuy" name="Page-1">
    <mxGraphModel dx="1028" dy="606" grid="1" gridSize="10" guides="1" tooltips="1" connect="1" arrows="1" fold="1" page="1" pageScale="1" pageWidth="827" pageHeight="1169" math="0" shadow="0">
      <root>
        <mxCell id="WIyWlLk6GJQsqaUBKTNV-0" />
        <mxCell id="WIyWlLk6GJQsqaUBKTNV-1" parent="WIyWlLk6GJQsqaUBKTNV-0" />
        <mxCell id="duPfT1v5lBpz2_xe6WT2-3" style="edgeStyle=orthogonalEdgeStyle;rounded=0;orthogonalLoop=1;jettySize=auto;html=1;" parent="WIyWlLk6GJQsqaUBKTNV-1" source="duPfT1v5lBpz2_xe6WT2-0" target="duPfT1v5lBpz2_xe6WT2-2" edge="1">
          <mxGeometry relative="1" as="geometry" />
        </mxCell>
        <mxCell id="duPfT1v5lBpz2_xe6WT2-0" value="Start" style="ellipse;whiteSpace=wrap;html=1;" parent="WIyWlLk6GJQsqaUBKTNV-1" vertex="1">
          <mxGeometry x="240" y="20" width="120" height="80" as="geometry" />
        </mxCell>
        <mxCell id="duPfT1v5lBpz2_xe6WT2-11" style="edgeStyle=orthogonalEdgeStyle;rounded=0;orthogonalLoop=1;jettySize=auto;html=1;exitX=0.5;exitY=1;exitDx=0;exitDy=0;entryX=0.5;entryY=0;entryDx=0;entryDy=0;" parent="WIyWlLk6GJQsqaUBKTNV-1" source="duPfT1v5lBpz2_xe6WT2-1" target="duPfT1v5lBpz2_xe6WT2-5" edge="1">
          <mxGeometry relative="1" as="geometry" />
        </mxCell>
        <mxCell id="duPfT1v5lBpz2_xe6WT2-1" value="thunhap" style="shape=parallelogram;perimeter=parallelogramPerimeter;whiteSpace=wrap;html=1;fixedSize=1;" parent="WIyWlLk6GJQsqaUBKTNV-1" vertex="1">
          <mxGeometry x="240" y="240" width="120" height="60" as="geometry" />
        </mxCell>
        <mxCell id="duPfT1v5lBpz2_xe6WT2-4" style="edgeStyle=orthogonalEdgeStyle;rounded=0;orthogonalLoop=1;jettySize=auto;html=1;" parent="WIyWlLk6GJQsqaUBKTNV-1" source="duPfT1v5lBpz2_xe6WT2-2" target="duPfT1v5lBpz2_xe6WT2-1" edge="1">
          <mxGeometry relative="1" as="geometry" />
        </mxCell>
        <mxCell id="duPfT1v5lBpz2_xe6WT2-2" value="tax" style="rounded=0;whiteSpace=wrap;html=1;" parent="WIyWlLk6GJQsqaUBKTNV-1" vertex="1">
          <mxGeometry x="250" y="140" width="120" height="60" as="geometry" />
        </mxCell>
        <mxCell id="duPfT1v5lBpz2_xe6WT2-12" value="False" style="edgeStyle=orthogonalEdgeStyle;rounded=0;orthogonalLoop=1;jettySize=auto;html=1;entryX=0.5;entryY=0;entryDx=0;entryDy=0;" parent="WIyWlLk6GJQsqaUBKTNV-1" source="duPfT1v5lBpz2_xe6WT2-5" target="duPfT1v5lBpz2_xe6WT2-6" edge="1">
          <mxGeometry relative="1" as="geometry" />
        </mxCell>
        <mxCell id="duPfT1v5lBpz2_xe6WT2-25" value="True" style="edgeStyle=orthogonalEdgeStyle;rounded=0;orthogonalLoop=1;jettySize=auto;html=1;entryX=0.049;entryY=0.644;entryDx=0;entryDy=0;entryPerimeter=0;" parent="WIyWlLk6GJQsqaUBKTNV-1" source="duPfT1v5lBpz2_xe6WT2-5" target="duPfT1v5lBpz2_xe6WT2-17" edge="1">
          <mxGeometry relative="1" as="geometry" />
        </mxCell>
        <mxCell id="duPfT1v5lBpz2_xe6WT2-5" value="income&amp;lt;=5000000" style="rhombus;whiteSpace=wrap;html=1;" parent="WIyWlLk6GJQsqaUBKTNV-1" vertex="1">
          <mxGeometry x="180" y="350" width="220" height="90" as="geometry" />
        </mxCell>
        <mxCell id="duPfT1v5lBpz2_xe6WT2-13" value="False" style="edgeStyle=orthogonalEdgeStyle;rounded=0;orthogonalLoop=1;jettySize=auto;html=1;" parent="WIyWlLk6GJQsqaUBKTNV-1" source="duPfT1v5lBpz2_xe6WT2-6" target="duPfT1v5lBpz2_xe6WT2-7" edge="1">
          <mxGeometry relative="1" as="geometry" />
        </mxCell>
        <mxCell id="duPfT1v5lBpz2_xe6WT2-26" value="True" style="edgeStyle=orthogonalEdgeStyle;rounded=0;orthogonalLoop=1;jettySize=auto;html=1;entryX=0;entryY=0.5;entryDx=0;entryDy=0;" parent="WIyWlLk6GJQsqaUBKTNV-1" source="duPfT1v5lBpz2_xe6WT2-6" target="duPfT1v5lBpz2_xe6WT2-18" edge="1">
          <mxGeometry relative="1" as="geometry" />
        </mxCell>
        <mxCell id="duPfT1v5lBpz2_xe6WT2-6" value="income&amp;lt;=10000000" style="rhombus;whiteSpace=wrap;html=1;" parent="WIyWlLk6GJQsqaUBKTNV-1" vertex="1">
          <mxGeometry x="180" y="490" width="220" height="90" as="geometry" />
        </mxCell>
        <mxCell id="duPfT1v5lBpz2_xe6WT2-14" value="False" style="edgeStyle=orthogonalEdgeStyle;rounded=0;orthogonalLoop=1;jettySize=auto;html=1;" parent="WIyWlLk6GJQsqaUBKTNV-1" source="duPfT1v5lBpz2_xe6WT2-7" target="duPfT1v5lBpz2_xe6WT2-8" edge="1">
          <mxGeometry relative="1" as="geometry" />
        </mxCell>
        <mxCell id="duPfT1v5lBpz2_xe6WT2-27" value="True" style="edgeStyle=orthogonalEdgeStyle;rounded=0;orthogonalLoop=1;jettySize=auto;html=1;entryX=0;entryY=0.5;entryDx=0;entryDy=0;" parent="WIyWlLk6GJQsqaUBKTNV-1" source="duPfT1v5lBpz2_xe6WT2-7" target="duPfT1v5lBpz2_xe6WT2-19" edge="1">
          <mxGeometry relative="1" as="geometry" />
        </mxCell>
        <mxCell id="duPfT1v5lBpz2_xe6WT2-7" value="income&amp;lt;=18000000" style="rhombus;whiteSpace=wrap;html=1;" parent="WIyWlLk6GJQsqaUBKTNV-1" vertex="1">
          <mxGeometry x="180" y="640" width="220" height="90" as="geometry" />
        </mxCell>
        <mxCell id="duPfT1v5lBpz2_xe6WT2-15" value="False" style="edgeStyle=orthogonalEdgeStyle;rounded=0;orthogonalLoop=1;jettySize=auto;html=1;" parent="WIyWlLk6GJQsqaUBKTNV-1" source="duPfT1v5lBpz2_xe6WT2-8" target="duPfT1v5lBpz2_xe6WT2-9" edge="1">
          <mxGeometry relative="1" as="geometry" />
        </mxCell>
        <mxCell id="duPfT1v5lBpz2_xe6WT2-28" value="True" style="edgeStyle=orthogonalEdgeStyle;rounded=0;orthogonalLoop=1;jettySize=auto;html=1;" parent="WIyWlLk6GJQsqaUBKTNV-1" source="duPfT1v5lBpz2_xe6WT2-8" target="duPfT1v5lBpz2_xe6WT2-20" edge="1">
          <mxGeometry relative="1" as="geometry" />
        </mxCell>
        <mxCell id="duPfT1v5lBpz2_xe6WT2-8" value="income&amp;lt;=32000000" style="rhombus;whiteSpace=wrap;html=1;" parent="WIyWlLk6GJQsqaUBKTNV-1" vertex="1">
          <mxGeometry x="180" y="780" width="220" height="90" as="geometry" />
        </mxCell>
        <mxCell id="duPfT1v5lBpz2_xe6WT2-16" value="False" style="edgeStyle=orthogonalEdgeStyle;rounded=0;orthogonalLoop=1;jettySize=auto;html=1;" parent="WIyWlLk6GJQsqaUBKTNV-1" source="duPfT1v5lBpz2_xe6WT2-9" target="duPfT1v5lBpz2_xe6WT2-10" edge="1">
          <mxGeometry relative="1" as="geometry" />
        </mxCell>
        <mxCell id="duPfT1v5lBpz2_xe6WT2-29" value="True" style="edgeStyle=orthogonalEdgeStyle;rounded=0;orthogonalLoop=1;jettySize=auto;html=1;" parent="WIyWlLk6GJQsqaUBKTNV-1" source="duPfT1v5lBpz2_xe6WT2-9" target="duPfT1v5lBpz2_xe6WT2-21" edge="1">
          <mxGeometry relative="1" as="geometry" />
        </mxCell>
        <mxCell id="duPfT1v5lBpz2_xe6WT2-9" value="income&amp;lt;=52000000" style="rhombus;whiteSpace=wrap;html=1;" parent="WIyWlLk6GJQsqaUBKTNV-1" vertex="1">
          <mxGeometry x="180" y="920" width="220" height="90" as="geometry" />
        </mxCell>
        <mxCell id="duPfT1v5lBpz2_xe6WT2-24" value="False" style="edgeStyle=orthogonalEdgeStyle;rounded=0;orthogonalLoop=1;jettySize=auto;html=1;" parent="WIyWlLk6GJQsqaUBKTNV-1" source="duPfT1v5lBpz2_xe6WT2-10" target="duPfT1v5lBpz2_xe6WT2-23" edge="1">
          <mxGeometry relative="1" as="geometry" />
        </mxCell>
        <mxCell id="duPfT1v5lBpz2_xe6WT2-30" value="True" style="edgeStyle=orthogonalEdgeStyle;rounded=0;orthogonalLoop=1;jettySize=auto;html=1;" parent="WIyWlLk6GJQsqaUBKTNV-1" source="duPfT1v5lBpz2_xe6WT2-10" target="duPfT1v5lBpz2_xe6WT2-22" edge="1">
          <mxGeometry relative="1" as="geometry" />
        </mxCell>
        <mxCell id="duPfT1v5lBpz2_xe6WT2-10" value="income&amp;lt;=80000000" style="rhombus;whiteSpace=wrap;html=1;" parent="WIyWlLk6GJQsqaUBKTNV-1" vertex="1">
          <mxGeometry x="180" y="1079" width="220" height="90" as="geometry" />
        </mxCell>
        <mxCell id="duPfT1v5lBpz2_xe6WT2-33" style="edgeStyle=orthogonalEdgeStyle;rounded=0;orthogonalLoop=1;jettySize=auto;html=1;entryX=1;entryY=0.5;entryDx=0;entryDy=0;" parent="WIyWlLk6GJQsqaUBKTNV-1" source="duPfT1v5lBpz2_xe6WT2-17" target="duPfT1v5lBpz2_xe6WT2-31" edge="1">
          <mxGeometry relative="1" as="geometry">
            <mxPoint x="750" y="1370" as="targetPoint" />
            <Array as="points">
              <mxPoint x="760" y="388" />
              <mxPoint x="760" y="1470" />
            </Array>
          </mxGeometry>
        </mxCell>
        <mxCell id="duPfT1v5lBpz2_xe6WT2-17" value="tax=income*5/100" style="shape=parallelogram;perimeter=parallelogramPerimeter;whiteSpace=wrap;html=1;fixedSize=1;" parent="WIyWlLk6GJQsqaUBKTNV-1" vertex="1">
          <mxGeometry x="460" y="350" width="190" height="75" as="geometry" />
        </mxCell>
        <mxCell id="duPfT1v5lBpz2_xe6WT2-38" style="edgeStyle=orthogonalEdgeStyle;rounded=0;orthogonalLoop=1;jettySize=auto;html=1;" parent="WIyWlLk6GJQsqaUBKTNV-1" source="duPfT1v5lBpz2_xe6WT2-18" edge="1">
          <mxGeometry relative="1" as="geometry">
            <mxPoint x="760" y="535" as="targetPoint" />
          </mxGeometry>
        </mxCell>
        <mxCell id="duPfT1v5lBpz2_xe6WT2-18" value="tax=income*10/100" style="shape=parallelogram;perimeter=parallelogramPerimeter;whiteSpace=wrap;html=1;fixedSize=1;" parent="WIyWlLk6GJQsqaUBKTNV-1" vertex="1">
          <mxGeometry x="450" y="497.5" width="190" height="75" as="geometry" />
        </mxCell>
        <mxCell id="duPfT1v5lBpz2_xe6WT2-37" style="edgeStyle=orthogonalEdgeStyle;rounded=0;orthogonalLoop=1;jettySize=auto;html=1;" parent="WIyWlLk6GJQsqaUBKTNV-1" source="duPfT1v5lBpz2_xe6WT2-19" edge="1">
          <mxGeometry relative="1" as="geometry">
            <mxPoint x="760" y="692.5" as="targetPoint" />
          </mxGeometry>
        </mxCell>
        <mxCell id="duPfT1v5lBpz2_xe6WT2-19" value="tax=income*15/100" style="shape=parallelogram;perimeter=parallelogramPerimeter;whiteSpace=wrap;html=1;fixedSize=1;" parent="WIyWlLk6GJQsqaUBKTNV-1" vertex="1">
          <mxGeometry x="450" y="655" width="190" height="75" as="geometry" />
        </mxCell>
        <mxCell id="duPfT1v5lBpz2_xe6WT2-36" style="edgeStyle=orthogonalEdgeStyle;rounded=0;orthogonalLoop=1;jettySize=auto;html=1;" parent="WIyWlLk6GJQsqaUBKTNV-1" source="duPfT1v5lBpz2_xe6WT2-20" edge="1">
          <mxGeometry relative="1" as="geometry">
            <mxPoint x="760" y="825" as="targetPoint" />
          </mxGeometry>
        </mxCell>
        <mxCell id="duPfT1v5lBpz2_xe6WT2-20" value="tax=income*20/100" style="shape=parallelogram;perimeter=parallelogramPerimeter;whiteSpace=wrap;html=1;fixedSize=1;" parent="WIyWlLk6GJQsqaUBKTNV-1" vertex="1">
          <mxGeometry x="440" y="787.5" width="190" height="75" as="geometry" />
        </mxCell>
        <mxCell id="duPfT1v5lBpz2_xe6WT2-35" style="edgeStyle=orthogonalEdgeStyle;rounded=0;orthogonalLoop=1;jettySize=auto;html=1;" parent="WIyWlLk6GJQsqaUBKTNV-1" source="duPfT1v5lBpz2_xe6WT2-21" edge="1">
          <mxGeometry relative="1" as="geometry">
            <mxPoint x="760" y="965" as="targetPoint" />
          </mxGeometry>
        </mxCell>
        <mxCell id="duPfT1v5lBpz2_xe6WT2-21" value="tax=income*25/100" style="shape=parallelogram;perimeter=parallelogramPerimeter;whiteSpace=wrap;html=1;fixedSize=1;" parent="WIyWlLk6GJQsqaUBKTNV-1" vertex="1">
          <mxGeometry x="460" y="927.5" width="190" height="75" as="geometry" />
        </mxCell>
        <mxCell id="duPfT1v5lBpz2_xe6WT2-34" style="edgeStyle=orthogonalEdgeStyle;rounded=0;orthogonalLoop=1;jettySize=auto;html=1;" parent="WIyWlLk6GJQsqaUBKTNV-1" source="duPfT1v5lBpz2_xe6WT2-22" edge="1">
          <mxGeometry relative="1" as="geometry">
            <mxPoint x="760" y="1124" as="targetPoint" />
          </mxGeometry>
        </mxCell>
        <mxCell id="duPfT1v5lBpz2_xe6WT2-22" value="tax=income*30/100" style="shape=parallelogram;perimeter=parallelogramPerimeter;whiteSpace=wrap;html=1;fixedSize=1;" parent="WIyWlLk6GJQsqaUBKTNV-1" vertex="1">
          <mxGeometry x="480" y="1086.5" width="190" height="75" as="geometry" />
        </mxCell>
        <mxCell id="duPfT1v5lBpz2_xe6WT2-32" style="edgeStyle=orthogonalEdgeStyle;rounded=0;orthogonalLoop=1;jettySize=auto;html=1;entryX=0;entryY=0.5;entryDx=0;entryDy=0;" parent="WIyWlLk6GJQsqaUBKTNV-1" source="duPfT1v5lBpz2_xe6WT2-23" target="duPfT1v5lBpz2_xe6WT2-31" edge="1">
          <mxGeometry relative="1" as="geometry" />
        </mxCell>
        <mxCell id="duPfT1v5lBpz2_xe6WT2-23" value="&#x9;tax=income*35/100" style="shape=parallelogram;perimeter=parallelogramPerimeter;whiteSpace=wrap;html=1;fixedSize=1;" parent="WIyWlLk6GJQsqaUBKTNV-1" vertex="1">
          <mxGeometry x="195" y="1250" width="190" height="75" as="geometry" />
        </mxCell>
        <mxCell id="duPfT1v5lBpz2_xe6WT2-31" value="End" style="ellipse;whiteSpace=wrap;html=1;" parent="WIyWlLk6GJQsqaUBKTNV-1" vertex="1">
          <mxGeometry x="370" y="1430" width="120" height="80" as="geometry" />
        </mxCell>
      </root>
    </mxGraphModel>
  </diagram>
</mxfile>
